<svg xmlns="http://www.w3.org/2000/svg" viewBox="0 0 32 32">
  <defs>
    <linearGradient id="gearG" x1="0" y1="0" x2="32" y2="32" gradientUnits="userSpaceOnUse">
      <stop offset="0" stop-color="#9F87F5"/>
      <stop offset="1" stop-color="#5E45D0"/>
    </linearGradient>
  </defs>
  <path d="M16,2.5 L18.6,4.1 L21.6,3.1 L23.4,5.7 L26.4,6.2 L26.9,9.3 L29.6,10.8 L28.7,13.8 L30,16 L28.7,18.2 L29.6,21.2 L26.9,22.7 L26.4,25.8 L23.4,26.3 L21.6,28.9 L18.6,27.9 L16,29.5 L13.4,27.9 L10.4,28.9 L8.6,26.3 L5.6,25.8 L5.1,22.7 L2.4,21.2 L3.3,18.2 L2,16 L3.3,13.8 L2.4,10.8 L5.1,9.3 L5.6,6.2 L8.6,5.7 L10.4,3.1 L13.4,4.1 Z" fill="url(#gearG)"/>
  <circle cx="16" cy="16" r="5.2" fill="#ffffff" opacity="0.96"/>
  <circle cx="16" cy="16" r="2.6" fill="url(#gearG)"/>
</svg>
